<?xml version="1.0" encoding="iso-8859-1"?>
<!-- Generator: Adobe Illustrator 16.0.0, SVG Export Plug-In . SVG Version: 6.00 Build 0)  -->
<!DOCTYPE svg PUBLIC "-//W3C//DTD SVG 1.1//EN" "http://www.w3.org/Graphics/SVG/1.1/DTD/svg11.dtd">
<svg version="1.1" id="Capa_1" xmlns="http://www.w3.org/2000/svg" xmlns:xlink="http://www.w3.org/1999/xlink" x="0px" y="0px"
	 width="79.372px" height="79.372px" viewBox="0 0 79.372 79.372" style="enable-background:new 0 0 79.372 79.372;"
	 xml:space="preserve">
<g>
	<g>
		<path d="M18.02,79.372h43.332c0.828,0,1.5-0.67,1.5-1.5V1.5c0-0.829-0.672-1.5-1.5-1.5H18.02c-0.828,0-1.5,0.671-1.5,1.5v76.371
			C16.52,78.702,17.192,79.372,18.02,79.372z M19.52,3h40.332v73.371H19.52V3z"/>
		<path d="M56.137,23.106h-6.309v-6.309c0-0.829-0.672-1.5-1.5-1.5h-7.811c-0.829,0-1.5,0.671-1.5,1.5v6.309h-4.81v-6.309
			c0-0.829-0.672-1.5-1.5-1.5h-7.81c-0.828,0-1.5,0.671-1.5,1.5v7.809c0,0.829,0.672,1.5,1.5,1.5h6.31v5.366h-6.31
			c-0.828,0-1.5,0.671-1.5,1.5v7.809c0,0.828,0.672,1.5,1.5,1.5h6.31v6.312c0,0.825,0.673,1.5,1.5,1.5h7.81
			c0.828,0,1.5-0.675,1.5-1.5v-6.312h4.811v6.312c0,0.825,0.672,1.5,1.5,1.5h7.811c0.828,0,1.5-0.675,1.5-1.5v-7.812
			c0-0.827-0.672-1.5-1.5-1.5h-6.311v-5.365h6.311c0.828,0,1.5-0.671,1.5-1.5v-7.81C57.637,23.777,56.965,23.106,56.137,23.106z
			 M42.02,31.472v-5.366h4.809v5.366H42.02z M34.211,33.915h4.81v5.364h-4.81V33.915z M42.02,18.297h4.809v4.809H42.02V18.297z
			 M39.02,30.915h-4.81v-4.811h4.81V30.915z M26.402,18.297h4.81v4.809h-4.81V18.297z M26.402,34.472h4.81v4.809h-4.81V34.472z
			 M39.02,47.088h-4.81v-4.811h4.81V47.088z M42.02,34.472h4.809v4.809H42.02V34.472z M54.637,47.088h-4.809v-4.811h4.809V47.088z
			 M54.637,30.915h-4.809v-4.811h4.809V30.915z"/>
		<path d="M40.52,61.166c-3.4,0-6.167,2.768-6.167,6.168c0,3.396,2.767,6.166,6.167,6.166c3.398,0,6.166-2.768,6.166-6.166
			C46.686,63.934,43.92,61.166,40.52,61.166z M40.52,70.5c-1.747,0-3.167-1.42-3.167-3.168c0-1.746,1.421-3.166,3.167-3.166
			s3.166,1.42,3.166,3.166S42.266,70.5,40.52,70.5z"/>
	</g>
</g>
<g>
</g>
<g>
</g>
<g>
</g>
<g>
</g>
<g>
</g>
<g>
</g>
<g>
</g>
<g>
</g>
<g>
</g>
<g>
</g>
<g>
</g>
<g>
</g>
<g>
</g>
<g>
</g>
<g>
</g>
</svg>
